HIERARCHY
ROOT Hips
{
	OFFSET 0.00000 0.00000 0.00000
	CHANNELS 6 Xposition Yposition Zposition Zrotation Yrotation Xrotation 
	JOINT LHipJoint
	{
		OFFSET 0 0 0
		CHANNELS 3 Zrotation Yrotation Xrotation
		JOINT LeftHip
		{
			OFFSET 1.64549 -1.70879 0.84566
			CHANNELS 3 Zrotation Yrotation Xrotation
			JOINT LeftKnee
			{
				OFFSET 2.24963 -6.18082 0.00000
				CHANNELS 3 Zrotation Yrotation Xrotation
				JOINT LeftAnkle
				{
					OFFSET 2.71775 -7.46697 0.00000
					CHANNELS 3 Zrotation Yrotation Xrotation
					JOINT LeftToe
					{
						OFFSET 0.18768 -0.51564 2.24737
						CHANNELS 3 Zrotation Yrotation Xrotation
						End Site
						{
							OFFSET 0.00000 -0.00000 1.15935
						}
					}
				}
			}
		}
	}
	JOINT RHipJoint
	{
		OFFSET 0 0 0
		CHANNELS 3 Zrotation Yrotation Xrotation
		JOINT RightHip
		{
			OFFSET -1.58830 -1.70879 0.84566
			CHANNELS 3 Zrotation Yrotation Xrotation
			JOINT RightKnee
			{
				OFFSET -2.25006 -6.18201 0.00000
				CHANNELS 3 Zrotation Yrotation Xrotation
				JOINT RightAnkle
				{
					OFFSET -2.72829 -7.49593 0.00000
					CHANNELS 3 Zrotation Yrotation Xrotation
					JOINT RightToe
					{
						OFFSET -0.21541 -0.59185 2.10643
						CHANNELS 3 Zrotation Yrotation Xrotation
						End Site
						{
							OFFSET -0.00000 -0.00000 1.09838
						}
					}
				}
			}
		}
	}
	JOINT lowerback
	{
		OFFSET 0 0 0
		CHANNELS 3 Zrotation Yrotation Xrotation
		JOINT Chest
		{
			OFFSET 0.03142 2.10496 -0.11038
			CHANNELS 3 Zrotation Yrotation Xrotation
			JOINT Chest2
			{
				OFFSET -0.01863 2.10897 -0.06956
				CHANNELS 3 Zrotation Yrotation Xrotation
				JOINT lowerneck
				{
					OFFSET 0 0 0
					CHANNELS 3 Zrotation Yrotation Xrotation
					JOINT Neck
					{
						OFFSET -0.02267 1.73238 0.00451
						CHANNELS 3 Zrotation Yrotation Xrotation
						JOINT Head
						{
							OFFSET -0.05808 1.54724 -0.61749
							CHANNELS 3 Zrotation Yrotation Xrotation
							End Site
							{
								OFFSET -0.01396 1.71468 -0.21082
							}
						}
					}
				}
				JOINT LeftCollar
				{
					OFFSET 0 0 0
					CHANNELS 3 Zrotation Yrotation Xrotation
					JOINT LeftShoulder
					{
						OFFSET 3.44898 0.50298 0.21920
CHANNELS 3 Zrotation Xrotation Yrotation
						JOINT LeftElbow
						{
OFFSET 0 -5.419170 -0.000000
CHANNELS 3 Zrotation Xrotation Yrotation
							JOINT LeftWrist
							{
OFFSET 0 -2.443730 0.000000
CHANNELS 3 Zrotation Xrotation Yrotation
								JOINT lhand
								{
									OFFSET 0 0 0
CHANNELS 3 Zrotation Xrotation Yrotation
									JOINT LFingers
									{
OFFSET 0 -0.727500 0.000000
CHANNELS 3 Zrotation Xrotation Yrotation
										End Site
										{
OFFSET 0 -0.586530 0.000000
										}
									}
								}
								JOINT LThumb
								{
OFFSET 0 0.000000 0.000000
CHANNELS 3 Zrotation Xrotation Yrotation
									End Site
									{
OFFSET 0 -0.595490 0.595490
									}
								}
							}
						}
					}
				}
				JOINT RightCollar
				{
					OFFSET 0 0 0
					CHANNELS 3 Zrotation Yrotation Xrotation
					JOINT RightShoulder
					{
						OFFSET -3.23015 0.55830 0.31051
CHANNELS 3 Zrotation Xrotation Yrotation
						JOINT RightElbow
						{
OFFSET 0 -5.589760 0.000140
CHANNELS 3 Zrotation Xrotation Yrotation
							JOINT RightWrist
							{
OFFSET 0 -2.480600 0.000000
CHANNELS 3 Zrotation Xrotation Yrotation
								JOINT rhand
								{
									OFFSET 0 0 0
CHANNELS 3 Zrotation Xrotation Yrotation
									JOINT RFingers
									{
OFFSET 0 -0.816010 0.000000
CHANNELS 3 Zrotation Xrotation Yrotation
										End Site
										{
OFFSET 0 -0.657890 0.000000
										}
									}
								}
								JOINT RThumb
								{
OFFSET 0 0.000000 0.000000
CHANNELS 3 Zrotation Xrotation Yrotation
									End Site
									{
OFFSET 0 -0.667930 0.667930
									}
								}
							}
						}
					}
				}
			}
		}
	}
}
MOTION
Frames: 11
Frame Time: 0.008333333333333333
-8.140834 16.408553 9.079125 199.886743 151.308668 194.179706 0.000000 0.000000 0.000000 13.636373 -3.636842 -12.238708 5.759673 14.191193 44.009105 4.098522 11.090182 -43.059617 7.650811 15.856066 51.294476 0.000000 0.000000 0.000000 9.138635 -0.457311 -35.981186 -6.940456 -15.269186 48.626751 -1.996378 -20.321644 -40.133730 -1.328966 -7.288993 20.579488 -13.086297 -2.883875 -13.964483 -6.908966 -2.042920 -8.797561 -0.289783 -0.591263 -1.465362 -4.965090 -5.350348 -12.213267 4.297009 -8.271372 39.469753 1.374822 -3.488330 16.731065 0.000000 0.000000 0.000000 63.933957 1.723843 -1.462217 8.778120 -14.805937 1.142959 0.247905 52.040009 -28.612950 0.000000 0.000000 0.000000 -7.125000 0.000000 0.000000 -32.341225 55.488077 9.007673 0.000000 0.000000 0.000000 -45.966491 7.253261 -101.147017 -6.268149 -10.708662 -0.588096 16.545897 122.697657 -1.676146 0.000000 0.000000 0.000000 7.125000 0.000000 0.000000 31.657086 27.229063 16.091253
-8.136864 16.187673 9.171259 198.218431 154.004307 193.947372 0.000000 0.000000 0.000000 13.279842 -6.481082 -13.586996 5.754470 14.186111 43.988231 3.372988 13.790828 -41.447972 7.507927 15.744975 50.770028 0.000000 0.000000 0.000000 10.324494 1.362320 -39.209101 -8.050921 -16.149875 52.734750 -2.126912 -19.251119 -39.791902 -0.967546 -6.250778 17.517698 -11.059787 -2.300280 -13.440732 -6.813432 -1.681075 -9.238825 -1.216861 -0.459994 -2.257047 -4.520515 -4.846949 -12.672974 4.542936 -7.718857 39.390175 1.493049 -3.158216 16.750215 0.000000 0.000000 0.000000 62.133573 -0.190964 1.153780 8.607037 -14.532027 1.099469 1.656726 55.389750 -28.102734 0.000000 0.000000 0.000000 -7.125000 0.000000 0.000000 -30.620321 55.327434 8.335081 0.000000 0.000000 0.000000 -45.299865 5.880992 -98.739669 -6.128071 -10.475532 -0.562340 14.765851 120.779023 -2.407142 0.000000 0.000000 0.000000 7.125000 0.000000 0.000000 30.317088 26.714456 15.613781
-8.103882 15.986223 9.249425 196.360199 156.145735 192.761651 0.000000 0.000000 0.000000 13.261876 -9.671595 -14.577102 5.862523 14.293811 44.427513 2.252474 18.023233 -39.339520 7.246725 15.536101 49.801246 0.000000 0.000000 0.000000 11.718229 3.001192 -40.566836 -9.021550 -16.821539 56.164665 -2.300935 -18.516707 -39.979399 -0.811028 -5.746897 16.051962 -8.765610 -1.665631 -12.356482 -6.684158 -1.259278 -9.017635 -2.252847 -0.355415 -2.615195 -4.393607 -4.495831 -13.323592 5.165765 -7.443832 39.081304 1.778324 -2.938223 16.758961 0.000000 0.000000 0.000000 60.301527 -2.417181 1.888016 8.598627 -14.518478 1.097357 3.379844 57.404916 -27.378657 0.000000 0.000000 0.000000 -7.125000 0.000000 0.000000 -28.450144 55.032590 7.454365 0.000000 0.000000 0.000000 -44.605948 4.551582 -97.195042 -5.997536 -10.258090 -0.538831 12.852545 119.903434 -3.837982 0.000000 0.000000 0.000000 7.125000 0.000000 0.000000 28.710976 25.559012 15.447385
-8.055076 15.811120 9.331141 194.739885 158.362302 191.484536 0.000000 0.000000 0.000000 12.914848 -12.057224 -15.653858 5.996568 14.425016 44.967933 0.302198 23.832400 -35.300387 6.451136 14.844831 46.753830 0.000000 0.000000 0.000000 13.097470 4.250654 -40.947481 -9.730039 -17.254226 58.580820 -2.506670 -17.838293 -40.385319 -0.757693 -5.557334 15.505819 -6.685876 -1.163583 -11.188828 -6.413807 -0.921892 -8.623821 -3.056850 -0.287545 -2.819609 -4.369500 -4.011362 -14.042540 5.549678 -6.835897 38.902443 2.040660 -2.625129 16.817061 0.000000 0.000000 0.000000 58.010508 -4.827338 3.544708 8.502772 -14.364464 1.073413 4.348352 60.647640 -26.954874 0.000000 0.000000 0.000000 -7.125000 0.000000 0.000000 -27.227660 54.843976 6.967534 0.000000 0.000000 0.000000 -44.160054 3.435259 -91.584291 -5.778902 -9.892844 -0.500584 11.659981 115.927858 -5.074536 0.000000 0.000000 0.000000 7.125000 0.000000 0.000000 27.643254 24.509042 15.493598
-8.024893 15.691571 9.427476 193.292623 161.150007 190.243351 0.000000 0.000000 0.000000 12.094078 -13.304317 -16.331921 6.035655 14.462755 45.124518 -0.652669 25.749916 -32.319293 5.710229 14.140234 43.804897 0.000000 0.000000 0.000000 14.656497 4.611057 -40.934505 -10.164846 -17.500729 60.036882 -2.724270 -16.595827 -40.427362 -0.666585 -5.220740 14.539350 -4.815560 -0.537424 -9.871913 -6.165029 -0.372385 -8.357773 -3.774866 -0.098586 -3.236706 -4.203199 -3.468671 -14.287005 5.867033 -6.154388 38.511066 2.262909 -2.280681 16.621636 0.000000 0.000000 0.000000 55.899111 -6.847527 2.864315 8.638669 -14.582676 1.107511 4.461138 61.564977 -26.426929 0.000000 0.000000 0.000000 -7.125000 0.000000 0.000000 -26.762962 54.396899 6.535395 0.000000 0.000000 0.000000 -43.873935 2.466271 -86.816358 -5.604381 -9.600567 -0.471120 10.726403 112.875994 -6.072262 0.000000 0.000000 0.000000 7.125000 0.000000 0.000000 26.813811 23.650078 15.521951
-8.002929 15.584419 9.520865 192.144139 163.666381 188.933718 0.000000 0.000000 0.000000 11.052227 -14.393545 -16.833592 5.978781 14.407531 44.896107 -0.364471 23.983337 -31.470990 5.346776 13.761828 42.295831 0.000000 0.000000 0.000000 16.069319 4.642619 -40.388283 -10.432546 -17.645787 60.924263 -2.892422 -15.617269 -40.483171 -0.631535 -5.084867 14.150755 -3.474107 -0.098611 -8.230048 -5.864278 0.006039 -7.918817 -4.173519 0.029985 -3.649362 -4.041604 -2.927719 -14.411619 6.174167 -5.449467 37.681296 2.467874 -1.934405 16.164966 0.000000 0.000000 0.000000 53.811214 -9.120417 2.080522 8.704082 -14.687608 1.123918 5.021673 62.222483 -25.685101 0.000000 0.000000 0.000000 -7.125000 0.000000 0.000000 -25.745324 53.837227 5.899121 0.000000 0.000000 0.000000 -43.850478 1.549333 -80.653294 -5.330259 -9.140472 -0.426665 10.320998 108.106546 -6.390802 0.000000 0.000000 0.000000 7.125000 0.000000 0.000000 26.481711 23.378369 15.472100
-7.994998 15.507771 9.630719 191.063467 165.857748 187.587611 0.000000 0.000000 0.000000 10.037970 -15.580333 -17.248471 5.850685 14.281948 44.379236 -0.667663 23.812151 -29.013886 4.502736 12.789653 38.604377 0.000000 0.000000 0.000000 17.458975 4.745906 -39.207809 -10.572250 -17.719232 61.384371 -3.062241 -14.748675 -40.656550 -0.585537 -4.898789 13.620339 -2.409872 0.041942 -6.383772 -5.422947 0.048370 -7.344407 -4.297695 0.006905 -4.054193 -4.147812 -2.403019 -14.971656 6.587651 -4.721891 36.830767 2.762586 -1.593710 15.824346 0.000000 0.000000 0.000000 51.751195 -11.513369 1.767704 8.636350 -14.578944 1.106786 5.594285 62.843467 -25.304241 0.000000 0.000000 0.000000 -7.125000 0.000000 0.000000 -24.958114 53.598989 5.546902 0.000000 0.000000 0.000000 -44.133472 0.273539 -69.321734 -5.001935 -8.587651 -0.375947 10.628187 98.706550 -6.015937 0.000000 0.000000 0.000000 7.125000 0.000000 0.000000 26.761670 23.705617 15.444880
-7.998112 15.452013 9.757999 190.508509 167.933319 186.474336 0.000000 0.000000 0.000000 8.567058 -16.976565 -17.556570 5.670751 14.101491 43.645634 -1.215258 24.073306 -24.888911 3.124339 10.890029 31.913570 0.000000 0.000000 0.000000 18.270413 5.150071 -37.761682 -10.673360 -17.771493 61.716152 -3.243434 -13.954734 -40.954176 -0.496305 -4.516749 12.535124 -2.006671 0.219136 -4.653611 -5.372074 0.180419 -7.067450 -4.475797 0.049266 -4.721211 -3.728418 -1.987935 -14.459454 7.119490 -4.396059 35.911183 2.934968 -1.347223 15.225619 0.000000 0.000000 0.000000 50.235888 -13.841477 -1.099152 8.686235 -14.658926 1.119448 5.620261 61.781722 -25.248350 0.000000 0.000000 0.000000 -7.125000 0.000000 0.000000 -24.898875 53.553210 5.503731 0.000000 0.000000 0.000000 -43.847639 -0.190372 -55.975028 -4.749460 -8.161283 -0.339063 10.797941 87.610775 -5.575984 0.000000 0.000000 0.000000 7.125000 0.000000 0.000000 26.967497 24.097289 15.313836
-8.000983 15.392847 9.856653 190.100362 170.940631 186.649594 0.000000 0.000000 0.000000 7.487402 -17.936119 -19.081449 5.502120 13.927596 42.948724 -1.142946 22.201065 -21.557037 1.803252 8.370473 23.886911 0.000000 0.000000 0.000000 18.630571 7.331989 -37.626225 -10.778538 -17.824973 62.060369 -3.268542 -13.468009 -40.754914 -0.529452 -4.661302 12.945186 -1.890681 0.572165 -3.876449 -5.332708 0.589870 -7.302462 -4.516872 0.241372 -5.384138 -3.031983 -1.505488 -13.747937 7.367750 -3.953058 35.226632 2.956487 -1.055187 14.687944 0.000000 0.000000 0.000000 48.503664 -16.637068 -1.158674 8.315780 -14.063391 1.027553 6.129757 64.353038 -24.611525 0.000000 0.000000 0.000000 -7.125000 0.000000 0.000000 -24.029278 53.066220 4.998078 0.000000 0.000000 0.000000 -43.581769 -0.372018 -42.383639 -4.549764 -7.823139 -0.311246 10.391629 76.298044 -5.899859 0.000000 0.000000 0.000000 7.125000 0.000000 0.000000 26.632157 23.821174 15.268413
-8.001125 15.364511 9.998015 190.125287 171.997048 186.199678 0.000000 0.000000 0.000000 6.179628 -20.431629 -20.391215 5.373657 13.792555 42.412940 -0.965540 19.701523 -17.960396 0.681001 4.960550 13.859473 0.000000 0.000000 0.000000 18.830663 7.824097 -36.476042 -10.823829 -17.847815 62.208277 -3.416125 -13.193864 -41.252285 -0.569609 -4.833362 13.433963 -2.397486 0.182461 -3.208371 -5.217851 0.047923 -6.959653 -4.104468 -0.001313 -5.433961 -2.314166 -0.969788 -13.415779 7.344448 -3.348412 34.887756 2.896951 -0.718177 14.394146 0.000000 0.000000 0.000000 46.826539 -18.708904 -5.907570 8.430301 -14.247929 1.055516 6.559251 63.050752 -24.829204 0.000000 0.000000 0.000000 -7.125000 0.000000 0.000000 -23.749021 53.340121 5.098993 0.000000 0.000000 0.000000 -43.677005 -0.225743 -28.730025 -4.735883 -8.137989 -0.337640 10.395735 65.036241 -6.679019 0.000000 0.000000 0.000000 7.125000 0.000000 0.000000 26.469903 23.113234 15.650041
-7.978790 15.352939 10.171143 189.458175 173.076548 185.961301 0.000000 0.000000 0.000000 5.749104 -22.369912 -22.228533 5.332637 13.748851 42.240627 -0.693346 16.596235 -14.859494 0.077385 1.082042 2.985524 0.000000 0.000000 0.000000 19.727429 8.224197 -35.278316 -10.778453 -17.824940 62.060046 -3.525213 -12.980715 -41.613033 -0.505594 -4.554313 12.642254 -2.008554 -0.099222 -3.374494 -4.987379 -0.306283 -6.749546 -4.068138 -0.192015 -5.132737 -1.660354 -0.432284 -12.478727 7.371362 -2.728966 34.566060 2.864494 -0.386260 13.983648 0.000000 0.000000 0.000000 44.851105 -20.861075 -9.243382 8.310157 -14.054310 1.026183 7.639281 64.801167 -24.415823 0.000000 0.000000 0.000000 -7.125000 0.000000 0.000000 -22.474609 53.152188 4.696735 0.000000 0.000000 0.000000 -43.981400 0.600282 -14.924612 -5.492905 -9.412243 -0.455082 11.188901 53.778801 -7.645867 0.000000 0.000000 0.000000 7.125000 0.000000 0.000000 26.782013 22.201242 16.529793
